<svg width="10" height="13" viewBox="0 0 10 13" fill="none" xmlns="http://www.w3.org/2000/svg">
<path d="M4.44699 12.8511C4.44676 12.8509 4.44648 12.8508 4.44625 12.8506L0.383748 10.1972C0.0794116 9.9984 0.0805442 9.67688 0.386404 9.47901C0.692224 9.28116 1.18687 9.28193 1.49125 9.48071L4.21875 11.2622L4.21875 0.507813C4.21875 0.227348 4.56851 -5.26157e-08 5 -5.77611e-08C5.43148 -6.29065e-08 5.78125 0.227348 5.78125 0.507812L5.78125 11.2622L8.50875 9.48073C8.81312 9.28195 9.30777 9.28119 9.61359 9.47903C9.91949 9.6769 9.92055 9.99845 9.61625 10.1972L5.55375 12.8506C5.55351 12.8508 5.55324 12.8509 5.55301 12.8511C5.24762 13.05 4.75137 13.0493 4.44699 12.8511Z" fill="black"/>
</svg>
